<svg width="309" height="341" viewBox="0 0 309 341" fill="none" xmlns="http://www.w3.org/2000/svg">
<g clip-path="url(#clip0_9_78)">
<path fill-rule="evenodd" clip-rule="evenodd" d="M470.887 154.015C470.883 154.016 470.881 154.017 470.877 154.018L470.886 154.038C470.886 154.038 470.886 154.03 470.887 154.015ZM564.693 168.449C534.473 144.033 513.58 140.108 470.887 154.015C470.895 153.83 470.945 152.557 471.003 150.52C488.616 141.956 517.599 136.888 546.688 141.429C523.913 134.076 494.59 134.722 471.155 142.293V138.587C486.418 130.986 510.407 125.919 534.468 128.502C515.381 123.266 490.951 124.836 471.065 131.851C471.052 131.341 471.031 130.835 471.009 130.33C470.974 129.507 470.94 128.69 470.94 127.876C510.625 109.753 561.917 111.82 598.349 140.634C620.581 142.542 643.745 134.821 656.654 118.427C705.199 56.8236 627.152 3.5069 581.713 37.9452C559.699 -6.60796 476.704 -17.17 463.982 50.862C431.839 21.1135 381.552 45.2084 391.419 91.4109C397.596 120.424 434.982 132.148 461.557 129.366C461.557 129.366 464.242 150.214 463.982 178.72C490.766 141.429 531.702 150.52 564.693 168.449ZM407.869 88.035C407.868 88.0906 407.868 88.1458 407.867 88.2014H407.912C407.898 88.1463 407.883 88.0906 407.869 88.035ZM407.869 88.035C408.125 63.5127 431.379 50.8846 458.263 60.8874C441.877 49.1033 414.457 49.153 407.912 73.1286C406.625 77.9943 406.611 83.1627 407.869 88.035ZM479.748 52.6604C497.327 21.3023 545.019 21.8588 567.877 47.8812C549.823 15.2413 491.455 9.91564 479.748 52.6604ZM596.626 46.8081C634.738 45.8145 657.465 71.0518 643.779 106.126C670.718 69.0745 632.19 36.5243 596.626 46.8081ZM469.315 62.4476C471.721 -4.77974 560.874 2.2351 579.063 47.9607L579.019 48.0103C606.954 24.5713 658.11 40.5981 660.478 75.0562C662.565 105.122 631.389 134.245 604.207 130.27C601.683 129.903 590.521 120.842 587.828 116.43C600.388 107.924 610.545 95.9913 616.451 84.5251C596.85 105.669 577.869 114.969 564.693 110.577C560.806 109.991 549.663 107.693 544.567 106.643C543.626 106.447 542.888 106.296 542.442 106.205C530.474 103.831 526.64 98.1075 525.898 84.0879C523.432 91.8648 523.296 98.9224 525.5 105.262C503.399 103.4 491.819 90.4403 490.766 66.3822C486.757 83.9955 490.402 97.3855 501.69 106.553C486.146 110.938 473.397 105.897 463.443 91.4308C464.44 101.158 470.563 109.653 477.638 114.284C455.883 125.631 415.571 121.766 403.594 95.4649C400.062 87.9155 399.297 79.1503 401.457 70.9924C410.399 38.2333 451.574 42.4263 469.315 62.4476ZM35.1115 330.168C45.8254 336.985 58.2784 340.394 72.4708 340.394C81.6543 340.394 90.2806 338.922 98.3508 335.978C106.421 332.879 113.587 328.464 119.848 322.731C121.657 321.182 122.909 319.555 123.605 317.851C124.301 315.991 124.649 313.9 124.649 311.576C124.649 308.168 123.814 305.301 122.144 302.977C120.475 300.653 118.457 299.491 116.091 299.491C114.561 299.491 113.1 299.801 111.708 300.42C110.317 301.04 108.926 301.815 107.534 302.745C101.134 307.548 95.3594 310.956 90.2112 312.971C85.2023 314.985 79.7062 315.991 73.7229 315.991C59.2524 315.991 48.2603 310.956 40.7467 300.886C33.3723 290.815 29.685 275.941 29.685 256.264C29.685 236.742 33.3723 221.946 40.7467 211.875C48.2603 201.804 59.2524 196.768 73.7229 196.768C79.9843 196.768 85.6891 197.776 90.8373 199.79C95.9854 201.649 101.551 205.058 107.534 210.016C110.456 212.184 113.308 213.269 116.091 213.269C118.457 213.269 120.475 212.107 122.144 209.783C123.814 207.459 124.649 204.593 124.649 201.184C124.649 198.705 124.301 196.614 123.605 194.909C122.909 193.205 121.657 191.578 119.848 190.029C113.587 184.296 106.421 179.958 98.3508 177.014C90.2806 173.915 81.6543 172.366 72.4708 172.366C58.2784 172.366 45.8254 175.775 35.1115 182.592C24.5368 189.409 16.3971 199.17 10.6924 211.875C4.98757 224.424 2.13519 239.221 2.13519 256.264C2.13519 273.307 4.98757 288.181 10.6924 300.886C16.3971 313.59 24.5368 323.351 35.1115 330.168ZM241.471 268.581C241.471 237.439 229.505 221.868 205.573 221.868C198.199 221.868 191.589 223.495 185.746 226.749C180.041 229.847 175.449 234.418 171.971 240.46V186.311C171.971 182.282 170.788 179.106 168.423 176.782C166.057 174.458 162.926 173.296 159.03 173.296C155.134 173.296 151.934 174.535 149.43 177.014C147.065 179.493 145.882 182.747 145.882 186.775V325.753C145.882 330.091 146.995 333.499 149.221 335.978C151.586 338.457 154.787 339.697 158.822 339.697C162.857 339.697 166.057 338.457 168.423 335.978C170.788 333.499 171.971 330.091 171.971 325.753V273.927C171.971 265.095 174.197 258.045 178.649 252.778C183.241 247.51 189.294 244.876 196.807 244.876C203.207 244.876 207.869 246.813 210.791 250.686C213.852 254.405 215.382 260.37 215.382 268.581V325.753C215.382 330.091 216.565 333.499 218.93 335.978C221.296 338.457 224.496 339.697 228.531 339.697C232.566 339.697 235.697 338.457 237.923 335.978C240.288 333.499 241.471 330.091 241.471 325.753V268.581ZM354.376 310.182C352.984 308.168 351.106 307.16 348.741 307.16C346.793 307.16 343.731 308.4 339.557 310.879C335.244 313.048 331.348 314.752 327.87 315.991C324.53 317.231 320.634 317.851 316.182 317.851C307.416 317.851 300.737 315.372 296.145 310.414C291.554 305.301 288.841 297.4 288.006 286.709H349.575C354.863 286.709 357.506 283.378 357.506 276.715C357.506 265.56 355.628 255.877 351.871 247.665C348.115 239.453 342.827 233.101 336.009 228.608C329.191 224.115 321.191 221.868 312.008 221.868C302.407 221.868 293.78 224.347 286.127 229.305C278.614 234.263 272.77 241.235 268.595 250.222C264.421 259.208 262.334 269.511 262.334 281.131C262.334 299.414 267.135 313.823 276.735 324.358C286.336 334.894 299.346 340.162 315.764 340.162C321.191 340.162 326.896 339.31 332.878 337.605C338.862 335.746 344.219 333.344 348.949 330.401C354.098 327.147 356.672 323.119 356.672 318.316C356.672 314.907 355.906 312.196 354.376 310.182ZM295.519 249.757C299.833 244.799 305.538 242.32 312.634 242.32C319.591 242.32 325.017 244.799 328.913 249.757C332.809 254.56 334.896 261.687 335.174 271.138H288.006C288.841 261.842 291.345 254.714 295.519 249.757ZM415.803 202.579C418.725 198.705 423.387 196.536 429.787 196.071L435.214 195.607C442.032 194.832 445.441 191.113 445.441 184.451C445.441 180.733 444.258 178.021 441.893 176.317C439.667 174.458 435.77 173.76 430.205 174.226L424.778 174.69C412.256 175.775 402.516 180.5 395.559 188.867C388.741 197.079 385.332 208.466 385.332 223.03V224.657H374.896C367.104 224.657 363.209 228.298 363.209 235.58C363.209 242.862 367.104 246.503 374.896 246.503H385.332V325.753C385.332 330.246 386.584 333.654 389.089 335.978C391.593 338.302 394.724 339.464 398.481 339.464C402.238 339.464 405.298 338.302 407.664 335.978C410.169 333.654 411.421 330.246 411.421 325.753V246.503H429.161C436.953 246.503 440.849 242.862 440.849 235.58C440.849 228.298 436.953 224.657 429.161 224.657H411.421V219.312C411.421 212.03 412.882 206.452 415.803 202.579ZM483.509 330.168C493.387 336.83 505.005 340.162 518.366 340.162C531.862 340.162 543.548 336.83 553.429 330.168C563.305 323.351 570.89 313.668 576.175 301.118C581.465 288.413 584.11 273.462 584.11 256.264C584.11 239.066 581.465 224.192 576.175 211.642C570.89 199.093 563.305 189.486 553.429 182.824C543.548 176.007 531.862 172.598 518.366 172.598C504.869 172.598 493.178 176.007 483.301 182.824C473.56 189.486 466.047 199.17 460.759 211.875C455.473 224.424 452.829 239.298 452.829 256.496C452.829 273.539 455.473 288.413 460.759 301.118C466.047 313.668 473.63 323.351 483.509 330.168ZM556.977 308.787C547.79 321.182 534.919 327.379 518.366 327.379C501.807 327.379 488.936 321.182 479.753 308.787C470.708 296.237 466.186 278.73 466.186 256.264C466.186 233.798 470.708 216.368 479.753 203.973C488.936 191.578 501.807 185.38 518.366 185.38C535.06 185.38 547.931 191.578 556.977 203.973C566.159 216.213 570.75 233.643 570.75 256.264C570.75 278.884 566.159 296.392 556.977 308.787ZM698.031 266.49C698.031 237.362 685.855 222.798 661.507 222.798C653.572 222.798 646.55 224.735 640.425 228.608C634.442 232.326 629.851 237.749 626.652 244.876V230.235C626.652 228.066 626.094 226.361 624.983 225.122C623.867 223.882 622.406 223.263 620.596 223.263C618.65 223.263 617.048 223.96 615.796 225.354C614.685 226.594 614.127 228.298 614.127 230.467V332.26C614.127 334.429 614.685 336.211 615.796 337.605C617.048 338.845 618.65 339.464 620.596 339.464C622.547 339.464 624.075 338.845 625.192 337.605C626.303 336.211 626.861 334.429 626.861 332.26V272.997C626.861 261.532 629.851 252.391 635.834 245.574C641.954 238.756 650.025 235.348 660.046 235.348C668.811 235.348 675.212 237.904 679.245 243.017C683.283 248.13 685.297 256.264 685.297 267.419V332.26C685.297 334.429 685.855 336.211 686.966 337.605C688.219 338.845 689.82 339.464 691.766 339.464C693.717 339.464 695.246 338.845 696.362 337.605C697.473 336.211 698.031 334.429 698.031 332.26V266.49ZM732.789 337.605C734.041 338.845 735.643 339.464 737.589 339.464C739.399 339.464 740.86 338.845 741.971 337.605C743.223 336.366 743.849 334.584 743.849 332.26V180.5C743.849 178.176 743.223 176.394 741.971 175.155C740.86 173.915 739.399 173.296 737.589 173.296C735.643 173.296 734.041 173.915 732.789 175.155C731.678 176.394 731.12 178.176 731.12 180.5V332.26C731.12 334.584 731.678 336.366 732.789 337.605ZM779.059 337.605C780.311 338.845 781.907 339.464 783.858 339.464C785.804 339.464 787.338 338.845 788.449 337.605C789.561 336.366 790.119 334.584 790.119 332.26V230.467C790.119 228.143 789.561 226.361 788.449 225.122C787.338 223.882 785.804 223.263 783.858 223.263C781.907 223.263 780.311 223.882 779.059 225.122C777.942 226.361 777.389 228.143 777.389 230.467V332.26C777.389 334.584 777.942 336.366 779.059 337.605ZM776.972 194.212C778.777 196.071 781.073 197.001 783.858 197.001C786.639 197.001 788.867 196.071 790.536 194.212C792.346 192.353 793.249 189.951 793.249 187.008C793.249 183.909 792.346 181.43 790.536 179.571C788.867 177.711 786.639 176.782 783.858 176.782C781.073 176.782 778.777 177.711 776.972 179.571C775.302 181.43 774.467 183.909 774.467 187.008C774.467 189.951 775.302 192.353 776.972 194.212ZM907.558 266.49C907.558 237.362 895.382 222.798 871.034 222.798C863.099 222.798 856.072 224.735 849.952 228.608C843.968 232.326 839.377 237.749 836.179 244.876V230.235C836.179 228.066 835.621 226.361 834.505 225.122C833.394 223.882 831.933 223.263 830.123 223.263C828.177 223.263 826.575 223.96 825.323 225.354C824.212 226.594 823.654 228.298 823.654 230.467V332.26C823.654 334.429 824.212 336.211 825.323 337.605C826.575 338.845 828.177 339.464 830.123 339.464C832.074 339.464 833.602 338.845 834.714 337.605C835.83 336.211 836.388 334.429 836.388 332.26V272.997C836.388 261.532 839.377 252.391 845.361 245.574C851.481 238.756 859.552 235.348 869.569 235.348C878.338 235.348 884.739 237.904 888.772 243.017C892.805 248.13 894.824 256.264 894.824 267.419V332.26C894.824 334.429 895.382 336.211 896.493 337.605C897.745 338.845 899.347 339.464 901.293 339.464C903.244 339.464 904.773 338.845 905.884 337.605C907 336.211 907.558 334.429 907.558 332.26V266.49ZM1021.42 315.991C1020.58 314.752 1019.54 314.132 1018.29 314.132C1017.03 314.132 1014.88 315.294 1011.82 317.619C1007.23 320.562 1002.91 322.964 998.879 324.823C994.841 326.527 989.833 327.379 983.849 327.379C972.439 327.379 963.607 323.661 957.341 316.224C951.081 308.787 947.742 297.942 947.325 283.687H1016.83C1019.33 283.687 1021.14 283.068 1022.25 281.828C1023.37 280.434 1023.92 278.342 1023.92 275.553C1023.92 259.13 1020.1 246.271 1012.44 236.974C1004.93 227.523 994.632 222.798 981.553 222.798C972.231 222.798 963.951 225.277 956.715 230.235C949.62 235.038 944.054 241.932 940.021 250.919C936.124 259.75 934.178 269.976 934.178 281.596C934.178 299.723 938.628 313.977 947.533 324.358C956.439 334.739 968.615 339.929 984.057 339.929C995.19 339.929 1005.77 336.598 1015.78 329.936C1020.51 326.682 1022.88 323.351 1022.88 319.942C1022.88 318.393 1022.39 317.076 1021.42 315.991ZM958.176 244.643C964.024 237.826 971.813 234.418 981.553 234.418C991.153 234.418 998.597 237.826 1003.89 244.643C1009.17 251.306 1011.96 260.834 1012.23 273.23H947.742C948.858 260.99 952.333 251.461 958.176 244.643Z" fill="white"/>
</g>
<defs>
<clipPath id="clip0_9_78">
<rect width="1024" height="340.452" fill="white" transform="translate(0.570923)"/>
</clipPath>
</defs>
</svg>
